<?xml version="1.0" encoding="utf-8"?>
<!-- Generator: Adobe Illustrator 23.0.4, SVG Export Plug-In . SVG Version: 6.00 Build 0)  -->
<svg version="1.1" id="Layer_1" xmlns="http://www.w3.org/2000/svg" xmlns:xlink="http://www.w3.org/1999/xlink" x="0px" y="0px"
	 viewBox="0 0 388.03 71.09" style="enable-background:new 0 0 388.03 71.09;" xml:space="preserve">
<style type="text/css">
	.st0{fill:#010101;}
	.st1{fill:#E32552;}
	.st2{fill:url(#SVGID_1_);}
	.st3{fill:#F06A22;}
</style>
<g>
	<g>
		<path class="st0" d="M174.66,27c1.57,0.86,2.79,2.11,3.67,3.75c0.88,1.64,1.32,3.62,1.32,5.93v10.54c0,0.63-0.21,1.15-0.62,1.56
			c-0.41,0.42-0.93,0.62-1.56,0.62c-0.63,0-1.15-0.21-1.56-0.62c-0.41-0.41-0.62-0.93-0.62-1.56V36.69c0-2.31-0.62-4.06-1.86-5.25
			c-1.24-1.19-2.88-1.78-4.93-1.78c-1.2,0-2.28,0.24-3.27,0.73c-0.98,0.49-1.75,1.14-2.31,1.97c-0.55,0.83-0.83,1.76-0.83,2.79
			v12.08c0,0.63-0.2,1.15-0.6,1.56c-0.4,0.42-0.92,0.62-1.58,0.62c-0.63,0-1.15-0.21-1.56-0.62c-0.41-0.41-0.62-0.93-0.62-1.56
			V28.12c0-0.66,0.21-1.19,0.62-1.59c0.41-0.4,0.93-0.6,1.56-0.6c0.66,0,1.18,0.2,1.58,0.6c0.4,0.4,0.6,0.93,0.6,1.59v0.47
			c0.91-0.91,1.99-1.62,3.25-2.12c1.25-0.5,2.59-0.75,4.01-0.75C171.33,25.72,173.1,26.14,174.66,27z"/>
		<path class="st0" d="M209.42,38.64c-0.37,0.36-0.84,0.54-1.41,0.54h-16.23c0.31,2,1.22,3.61,2.71,4.84
			c1.5,1.23,3.32,1.84,5.49,1.84c0.85,0,1.74-0.16,2.67-0.47c0.92-0.31,1.69-0.7,2.28-1.16c0.4-0.31,0.87-0.47,1.41-0.47
			c0.54,0,0.97,0.14,1.28,0.43c0.51,0.43,0.77,0.91,0.77,1.46c0,0.51-0.23,0.94-0.68,1.29c-0.97,0.77-2.17,1.4-3.61,1.88
			c-1.44,0.49-2.81,0.73-4.12,0.73c-2.33,0-4.43-0.51-6.28-1.52c-1.85-1.01-3.29-2.42-4.33-4.22c-1.04-1.8-1.56-3.84-1.56-6.13
			s0.49-4.33,1.47-6.15c0.98-1.81,2.35-3.23,4.1-4.24c1.75-1.01,3.74-1.52,5.96-1.52c2.19,0,4.08,0.49,5.68,1.46
			c1.59,0.97,2.82,2.33,3.67,4.07c0.85,1.74,1.28,3.74,1.28,6C209.98,37.83,209.79,38.28,209.42,38.64z M194.28,31.16
			c-1.29,1.14-2.11,2.67-2.46,4.59h14.22c-0.26-1.91-0.97-3.44-2.13-4.59c-1.17-1.14-2.69-1.71-4.57-1.71
			C197.27,29.44,195.58,30.02,194.28,31.16z"/>
		<path class="st0" d="M228.91,45.69c0.36,0.4,0.53,0.91,0.53,1.54c0,0.63-0.24,1.14-0.71,1.54c-0.47,0.4-1.07,0.6-1.81,0.6h-0.77
			c-1.4,0-2.67-0.36-3.82-1.09c-1.15-0.73-2.06-1.72-2.71-2.98c-0.66-1.26-0.98-2.67-0.98-4.24V30.47h-1.96
			c-0.6,0-1.08-0.17-1.45-0.51c-0.37-0.34-0.55-0.77-0.55-1.29c0-0.57,0.18-1.03,0.55-1.37c0.37-0.34,0.85-0.51,1.45-0.51h1.96
			v-6.17c0-0.63,0.2-1.14,0.6-1.54c0.4-0.4,0.91-0.6,1.54-0.6s1.14,0.2,1.54,0.6c0.4,0.4,0.6,0.92,0.6,1.54v6.17h3.63
			c0.6,0,1.08,0.17,1.45,0.51s0.55,0.8,0.55,1.37c0,0.51-0.18,0.94-0.55,1.29c-0.37,0.34-0.85,0.51-1.45,0.51h-3.63v10.58
			c0,1.14,0.31,2.1,0.94,2.87c0.62,0.77,1.39,1.16,2.31,1.16h1.45C228.12,45.09,228.56,45.29,228.91,45.69z"/>
		<path class="st0" d="M263.07,26.4c0.3,0.31,0.45,0.74,0.45,1.29c0,0.46-0.07,0.87-0.21,1.24l-6.32,19.03
			c-0.14,0.4-0.4,0.74-0.77,1.01c-0.37,0.27-0.78,0.41-1.24,0.41c-0.48,0-0.92-0.14-1.3-0.41c-0.38-0.27-0.63-0.61-0.75-1.01
			l-4.19-15.56l-4.4,15.56c-0.14,0.4-0.41,0.74-0.79,1.01c-0.38,0.27-0.8,0.41-1.26,0.41c-0.46,0-0.88-0.14-1.26-0.41
			c-0.38-0.27-0.65-0.61-0.79-1.01l-6.32-19.03c-0.11-0.37-0.17-0.77-0.17-1.2c0-1.2,0.6-1.8,1.79-1.8c0.54,0,0.99,0.16,1.34,0.47
			c0.36,0.31,0.65,0.81,0.88,1.5l4.61,14.44l4.36-14.78c0.14-0.48,0.39-0.88,0.75-1.18c0.36-0.3,0.82-0.45,1.39-0.45
			c0.54,0,0.99,0.15,1.34,0.45c0.36,0.3,0.6,0.69,0.75,1.18l3.84,15.08l4.7-14.74c0.4-1.31,1.14-1.97,2.22-1.97
			C262.33,25.93,262.77,26.09,263.07,26.4z"/>
		<path class="st0" d="M285.83,27.32c1.78,1.04,3.19,2.47,4.23,4.29c1.04,1.81,1.56,3.83,1.56,6.06v9.56c0,0.63-0.21,1.15-0.62,1.56
			c-0.41,0.42-0.93,0.62-1.56,0.62c-0.63,0-1.15-0.21-1.56-0.62c-0.41-0.41-0.62-0.93-0.62-1.56v-1.58c-1,1.23-2.21,2.19-3.63,2.87
			s-2.96,1.03-4.61,1.03c-2.05,0-3.91-0.51-5.57-1.54c-1.67-1.03-2.98-2.45-3.93-4.26c-0.95-1.81-1.43-3.83-1.43-6.06
			s0.51-4.25,1.54-6.06c1.03-1.81,2.44-3.24,4.25-4.29c1.81-1.04,3.81-1.56,6-1.56S284.05,26.28,285.83,27.32z M283.74,44.63
			c1.15-0.7,2.06-1.66,2.71-2.87c0.65-1.21,0.98-2.58,0.98-4.09c0-1.51-0.33-2.88-0.98-4.11c-0.66-1.23-1.56-2.19-2.71-2.89
			c-1.15-0.7-2.44-1.05-3.87-1.05s-2.71,0.35-3.86,1.05c-1.15,0.7-2.06,1.66-2.73,2.89c-0.67,1.23-1,2.6-1,4.11
			c0,1.51,0.33,2.88,1,4.09c0.67,1.21,1.58,2.17,2.73,2.87c1.15,0.7,2.44,1.05,3.86,1.05S282.59,45.34,283.74,44.63z"/>
		<path class="st0" d="M302.49,48.36c-0.98-0.67-1.74-1.61-2.28-2.83c-0.54-1.21-0.81-2.58-0.81-4.09v-23.4
			c0-0.63,0.2-1.14,0.6-1.54c0.4-0.4,0.91-0.6,1.54-0.6s1.14,0.2,1.54,0.6s0.6,0.91,0.6,1.54v23.4c0,1.06,0.2,1.93,0.6,2.61
			c0.4,0.69,0.91,1.03,1.54,1.03h1.07c0.57,0,1.03,0.2,1.39,0.6c0.36,0.4,0.53,0.91,0.53,1.54c0,0.63-0.27,1.14-0.81,1.54
			c-0.54,0.4-1.24,0.6-2.09,0.6h-0.08C304.57,49.37,303.47,49.04,302.49,48.36z"/>
		<path class="st0" d="M333.29,47.57c0,0.63-0.26,1.16-0.77,1.59c-0.43,0.34-0.88,0.51-1.37,0.51c-0.63,0-1.14-0.26-1.54-0.77
			l-8.11-10.07l-2.14,1.89v6.56c0,0.63-0.19,1.14-0.58,1.52c-0.38,0.39-0.89,0.58-1.52,0.58c-0.63,0-1.13-0.19-1.52-0.58
			c-0.38-0.38-0.58-0.89-0.58-1.52V18c0-0.63,0.19-1.14,0.58-1.52c0.38-0.39,0.89-0.58,1.52-0.58c0.63,0,1.13,0.19,1.52,0.58
			c0.38,0.38,0.58,0.89,0.58,1.52v17.44l10.38-9.3c0.37-0.37,0.81-0.56,1.32-0.56c0.6,0,1.08,0.23,1.45,0.69
			c0.37,0.37,0.55,0.81,0.55,1.33c0,0.6-0.23,1.09-0.68,1.46l-7.86,7.03l8.28,10.2C333.14,46.63,333.29,47.06,333.29,47.57z"/>
		<path class="st0" d="M359.9,38.64c-0.37,0.36-0.84,0.54-1.41,0.54h-16.23c0.31,2,1.22,3.61,2.71,4.84
			c1.5,1.23,3.32,1.84,5.49,1.84c0.85,0,1.74-0.16,2.67-0.47c0.92-0.31,1.69-0.7,2.28-1.16c0.4-0.31,0.87-0.47,1.41-0.47
			c0.54,0,0.97,0.14,1.28,0.43c0.51,0.43,0.77,0.91,0.77,1.46c0,0.51-0.23,0.94-0.68,1.29c-0.97,0.77-2.17,1.4-3.61,1.88
			c-1.44,0.49-2.81,0.73-4.12,0.73c-2.33,0-4.43-0.51-6.28-1.52c-1.85-1.01-3.29-2.42-4.33-4.22c-1.04-1.8-1.56-3.84-1.56-6.13
			s0.49-4.33,1.47-6.15c0.98-1.81,2.35-3.23,4.1-4.24c1.75-1.01,3.74-1.52,5.96-1.52c2.19,0,4.08,0.49,5.68,1.46
			c1.59,0.97,2.82,2.33,3.67,4.07c0.85,1.74,1.28,3.74,1.28,6C360.45,37.83,360.27,38.28,359.9,38.64z M344.76,31.16
			c-1.29,1.14-2.11,2.67-2.46,4.59h14.22c-0.26-1.91-0.97-3.44-2.13-4.59c-1.17-1.14-2.69-1.71-4.57-1.71
			C347.74,29.44,346.06,30.02,344.76,31.16z"/>
		<path class="st0" d="M383.13,26.36c0.85,0.46,1.28,1.03,1.28,1.71c0,0.2-0.01,0.34-0.04,0.43c-0.26,0.91-0.83,1.37-1.71,1.37
			c-0.14,0-0.36-0.03-0.64-0.09c-1.14-0.2-2.06-0.3-2.78-0.3c-2.05,0-3.7,0.47-4.95,1.41c-1.25,0.94-1.88,2.21-1.88,3.81v12.51
			c0,0.69-0.18,1.21-0.53,1.58c-0.36,0.37-0.89,0.56-1.6,0.56c-0.68,0-1.21-0.18-1.58-0.54c-0.37-0.36-0.56-0.89-0.56-1.61V28.07
			c0-0.69,0.19-1.21,0.56-1.58c0.37-0.37,0.9-0.56,1.58-0.56c1.42,0,2.13,0.71,2.13,2.14v0.81c0.85-1,1.91-1.78,3.16-2.36
			c1.25-0.57,2.59-0.86,4.01-0.86C381.09,25.67,382.27,25.9,383.13,26.36z"/>
	</g>
	<g>
		<circle class="st1" cx="13.2" cy="58.77" r="9.58"/>
		<g>
			<linearGradient id="SVGID_1_" gradientUnits="userSpaceOnUse" x1="114.0852" y1="46.1227" x2="124.2795" y2="10.6021">
				<stop  offset="0" style="stop-color:#E32552"/>
				<stop  offset="1" style="stop-color:#F06A22"/>
			</linearGradient>
			<path class="st2" d="M126.41,11.13c0-4.53-3.67-8.2-8.2-8.2c-4.53,0-8.2,3.67-8.2,8.2c0,0.01,0,0.02,0,0.03h0V34.2
				c0,0.81-0.65,1.46-1.46,1.46c-0.38,0-0.72-0.15-0.98-0.38l0,0l2.44,2.15v16.12h16.4V11.16h0
				C126.41,11.15,126.41,11.14,126.41,11.13z"/>
			<polygon class="st1" points="109.76,34.43 109.76,34.44 109.76,34.43 			"/>
		</g>
		<path class="st3" d="M73.48,34.94c0-0.81,0.65-1.46,1.46-1.46c0.33,0,0.63,0.11,0.88,0.3l36.69,32.39l0,0
			c1.48,1.35,3.44,2.18,5.6,2.18c4.44,0,8.07-3.49,8.28-7.88l0.01,0l0-0.4c0,0,0-0.01,0-0.01c0,0,0-0.01,0-0.01l-0.01-8.19
			l-0.09-0.08V31.92c-1.99,3.92-6.06,6.61-10.76,6.61c-2.04,0-4.54-0.29-6.12-1.61L73.56,5.36l-0.03,0.03
			c-1.77-1.64-4.13-2.64-6.73-2.64c-5.36,0-9.72,4.26-9.9,9.58h-0.01v21.99h0c0,0,0,0,0,0c0,0.81-0.65,1.46-1.46,1.46
			c-0.38,0-0.72-0.15-0.98-0.38l0,0L20.24,5.36l-0.01,0.01c-1.71-1.43-3.92-2.29-6.33-2.29c-5.46,0-9.88,4.42-9.88,9.88
			c0,2.85,1.21,5.41,3.14,7.22l-0.03,0.04l50.64,44.27l0.01,0c1.66,1.4,3.81,2.24,6.15,2.24c5.27,0,9.54-4.26,9.56-9.53h0
			L73.48,34.94z"/>
	</g>
</g>
</svg>
